# xmcd CD database file
#
# Track frame offsets:
#	150
#	25691
#	55377
#	68503
#	90047
#	117395
#	146483
#
# Disc length: 2469 seconds
#
# Revision: 0
# Processed by: cddbd v1.5.2PL0 Copyright (c) Steve Scherf et al.
# Submitted via: CDex 1.70beta2
#
DISCID=5009a307
DTITLE=Jukka Tolonen Band - A Passenger To Paramaribo
DYEAR=1977
DGENRE=Jazz
TTITLE0=A Passenger To Paramaribo
TTITLE1=Punks!
TTITLE2=Tanja
TTITLE3=Phantastes
TTITLE4=Air Rock
TTITLE5=Dimitri
TTITLE6=What Went Wrong?
EXTD=YEAR: 1977
EXTT0=
EXTT1=
EXTT2=
EXTT3=
EXTT4=
EXTT5=
EXTT6=
PLAYORDER=
